<?xml version="1.0" encoding="utf-8"?>
<Project name="RefactoringBasedOnRoles" version="65536" templateID="SimpleProjectTemplate">
  <MediaItems>
    <MediaItem id="1" filePath="C:\Users\jreimann\Documents\ScreencastRepo\videos\ecore_extractEnum_fast.avi" arWidth="1120" arHeight="840" duration="6.862069" songTitle="" songArtist="" songAlbum="" />
    <MediaItem id="2" filePath="C:\Users\jreimann\Documents\ScreencastRepo\videos\ecore_extractInterface_fast.avi" arWidth="1120" arHeight="840" duration="9.6285714999999996" songTitle="" songArtist="" songAlbum="" />
    <MediaItem id="3" filePath="C:\Users\jreimann\Documents\ScreencastRepo\videos\ecore_extractPackage_fast.avi" arWidth="1120" arHeight="840" duration="8.7586206999999998" songTitle="" songArtist="" songAlbum="" />
    <MediaItem id="4" filePath="C:\Users\jreimann\Documents\ScreencastRepo\videos\ecore_extractSuperClass_fast.avi" arWidth="1120" arHeight="840" duration="9.2413793999999996" songTitle="" songArtist="" songAlbum="" />
    <MediaItem id="5" filePath="C:\Users\jreimann\Documents\ScreencastRepo\videos\ecore_pullUp_fast.avi" arWidth="1120" arHeight="840" duration="8.2758620999999994" songTitle="" songArtist="" songAlbum="" />
    <MediaItem id="6" filePath="C:\Users\jreimann\Documents\ScreencastRepo\videos\ecore_renameElement_fast.avi" arWidth="1120" arHeight="840" duration="10.3793104" songTitle="" songArtist="" songAlbum="" />
    <MediaItem id="7" filePath="C:\Users\jreimann\Documents\ScreencastRepo\videos\feature_introduceConstraint_fast.avi" arWidth="1120" arHeight="840" duration="9.5172413999999996" songTitle="" songArtist="" songAlbum="" />
    <MediaItem id="8" filePath="C:\Users\jreimann\Documents\ScreencastRepo\videos\forms_introduceGroup_fast.avi" arWidth="1120" arHeight="840" duration="6.3103448999999996" songTitle="" songArtist="" songAlbum="" />
    <MediaItem id="9" filePath="C:\Users\jreimann\Documents\ScreencastRepo\videos\office_rename_fast.avi" arWidth="1120" arHeight="840" duration="14.896551799999999" songTitle="" songArtist="" songAlbum="" />
    <MediaItem id="10" filePath="C:\Users\jreimann\Documents\ScreencastRepo\videos\pl0_extractAndRename_fast.avi" arWidth="1120" arHeight="840" duration="20.655172499999999" songTitle="" songArtist="" songAlbum="" />
    <MediaItem id="11" filePath="C:\Users\jreimann\Documents\ScreencastRepo\videos\sandwich_rename_fast.avi" arWidth="1120" arHeight="840" duration="4.6551724999999999" songTitle="" songArtist="" songAlbum="" />
    <MediaItem id="12" filePath="C:\Users\jreimann\Documents\ScreencastRepo\videos\simplegui_encapsulate_fast.avi" arWidth="1120" arHeight="840" duration="6.3103448999999996" songTitle="" songArtist="" songAlbum="" />
    <MediaItem id="13" filePath="C:\Users\jreimann\Documents\ScreencastRepo\videos\tas_newRoom_fast.avi" arWidth="1120" arHeight="840" duration="6.4137931999999998" songTitle="" songArtist="" songAlbum="" />
    <MediaItem id="14" filePath="C:\Users\jreimann\Documents\ScreencastRepo\videos\uml_extractCompositeState_fast.avi" arWidth="1120" arHeight="840" duration="10.586206900000001" songTitle="" songArtist="" songAlbum="" />
    <MediaItem id="15" filePath="C:\Users\jreimann\Documents\ScreencastRepo\cut_version\Sever - Coma Circle LP (Creative Commons License)\03 - Zero Human.mp3" arWidth="0" arHeight="0" duration="207" songTitle="Zero Human" songArtist="Sever" songAlbum="Coma Circle LP" />
  </MediaItems>
  <Extents>
    <VideoClip extentID="17" gapBefore="0" mediaItemID="13" inTime="0" outTime="0">
      <Effects />
      <Transitions>
        <ShapeEffect effectTemplateID="RollTransitionTemplate" duration="1">
          <BoundProperties />
        </ShapeEffect>
      </Transitions>
      <BoundProperties>
        <BoundPropertyBool Name="Mute" Value="false" />
        <BoundPropertyInt Name="rotateStepNinety" Value="0" />
        <BoundPropertyFloat Name="Volume" Value="1" />
      </BoundProperties>
    </VideoClip>
    <VideoClip extentID="18" gapBefore="0" mediaItemID="14" inTime="0" outTime="0">
      <Effects />
      <Transitions />
      <BoundProperties>
        <BoundPropertyBool Name="Mute" Value="false" />
        <BoundPropertyInt Name="rotateStepNinety" Value="0" />
        <BoundPropertyFloat Name="Volume" Value="1" />
      </BoundProperties>
    </VideoClip>
    <AudioClip extentID="19" gapBefore="0" mediaItemID="15" inTime="0" outTime="0">
      <Effects>
        <AudioEffect effectTemplateID="AudioFadeEffectTemplate">
          <BoundProperties>
            <BoundPropertyFloat Name="AudioFadeInDuration" Value="0" />
            <BoundPropertyFloat Name="AudioFadeOutDuration" Value="10" />
          </BoundProperties>
        </AudioEffect>
      </Effects>
      <Transitions />
      <BoundProperties>
        <BoundPropertyBool Name="Mute" Value="false" />
        <BoundPropertyFloat Name="Volume" Value="1" />
      </BoundProperties>
    </AudioClip>
    <TitleClip extentID="20" gapBefore="0" duration="2">
      <Effects />
      <Transitions />
      <BoundProperties>
        <BoundPropertyFloatSet Name="diffuseColor">
          <BoundPropertyFloatElement Value="0" />
          <BoundPropertyFloatElement Value="0" />
          <BoundPropertyFloatElement Value="0" />
        </BoundPropertyFloatSet>
        <BoundPropertyFloat Name="transparency" Value="0" />
      </BoundProperties>
    </TitleClip>
    <TitleClip extentID="21" gapBefore="0" duration="2">
      <Effects>
        <TextEffect effectTemplateID="TextEffectFadeZoomTemplate" TextScriptId="9">
          <BoundProperties>
            <BoundPropertyBool Name="automatic" Value="false" />
            <BoundPropertyFloatSet Name="color">
              <BoundPropertyFloatElement Value="1" />
              <BoundPropertyFloatElement Value="1" />
              <BoundPropertyFloatElement Value="1" />
            </BoundPropertyFloatSet>
            <BoundPropertyStringSet Name="family">
              <BoundPropertyStringElement Value="Arial Black" />
            </BoundPropertyStringSet>
            <BoundPropertyBool Name="horizontal" Value="true" />
            <BoundPropertyStringSet Name="justify">
              <BoundPropertyStringElement Value="MIDDLE" />
            </BoundPropertyStringSet>
            <BoundPropertyFloatSet Name="length" />
            <BoundPropertyFloat Name="maxExtent" Value="0" />
            <BoundPropertyFloatSet Name="position">
              <BoundPropertyFloatElement Value="0" />
              <BoundPropertyFloatElement Value="1.133720874786377" />
              <BoundPropertyFloatElement Value="0.02500000037252903" />
            </BoundPropertyFloatSet>
            <BoundPropertyFloat Name="size" Value="0.60000002384185791" />
            <BoundPropertyStringSet Name="string">
              <BoundPropertyStringElement Value="Turn your " />
              <BoundPropertyStringElement Value="speakers on" />
              <BoundPropertyStringElement Value=" " />
            </BoundPropertyStringSet>
            <BoundPropertyString Name="style" Value="Plain" />
            <BoundPropertyFloat Name="transparency" Value="0" />
          </BoundProperties>
        </TextEffect>
      </Effects>
      <Transitions />
      <BoundProperties>
        <BoundPropertyFloatSet Name="diffuseColor">
          <BoundPropertyFloatElement Value="0.75" />
          <BoundPropertyFloatElement Value="1" />
          <BoundPropertyFloatElement Value="0" />
        </BoundPropertyFloatSet>
        <BoundPropertyFloat Name="transparency" Value="1" />
      </BoundProperties>
    </TitleClip>
    <VideoClip extentID="5" gapBefore="0" mediaItemID="1" inTime="0" outTime="0">
      <Effects />
      <Transitions>
        <ShapeEffect effectTemplateID="RollTransitionTemplate" duration="1">
          <BoundProperties />
        </ShapeEffect>
      </Transitions>
      <BoundProperties>
        <BoundPropertyBool Name="Mute" Value="false" />
        <BoundPropertyInt Name="rotateStepNinety" Value="0" />
        <BoundPropertyFloat Name="Volume" Value="1" />
      </BoundProperties>
    </VideoClip>
    <VideoClip extentID="6" gapBefore="0" mediaItemID="2" inTime="0" outTime="0">
      <Effects />
      <Transitions>
        <ShapeEffect effectTemplateID="RollTransitionTemplate" duration="1">
          <BoundProperties />
        </ShapeEffect>
      </Transitions>
      <BoundProperties>
        <BoundPropertyBool Name="Mute" Value="false" />
        <BoundPropertyInt Name="rotateStepNinety" Value="0" />
        <BoundPropertyFloat Name="Volume" Value="1" />
      </BoundProperties>
    </VideoClip>
    <TitleClip extentID="23" gapBefore="0" duration="3">
      <Effects />
      <Transitions />
      <BoundProperties>
        <BoundPropertyFloatSet Name="diffuseColor">
          <BoundPropertyFloatElement Value="0" />
          <BoundPropertyFloatElement Value="0" />
          <BoundPropertyFloatElement Value="0" />
        </BoundPropertyFloatSet>
        <BoundPropertyFloat Name="transparency" Value="0" />
      </BoundProperties>
    </TitleClip>
    <VideoClip extentID="7" gapBefore="0" mediaItemID="3" inTime="0" outTime="0">
      <Effects />
      <Transitions>
        <ShapeEffect effectTemplateID="RollTransitionTemplate" duration="1">
          <BoundProperties />
        </ShapeEffect>
      </Transitions>
      <BoundProperties>
        <BoundPropertyBool Name="Mute" Value="false" />
        <BoundPropertyInt Name="rotateStepNinety" Value="0" />
        <BoundPropertyFloat Name="Volume" Value="1" />
      </BoundProperties>
    </VideoClip>
    <TitleClip extentID="24" gapBefore="0" duration="2.5">
      <Effects>
        <TextEffect effectTemplateID="TextEffectFadeZoomTemplate" TextScriptId="9">
          <BoundProperties>
            <BoundPropertyBool Name="automatic" Value="false" />
            <BoundPropertyFloatSet Name="color">
              <BoundPropertyFloatElement Value="1" />
              <BoundPropertyFloatElement Value="1" />
              <BoundPropertyFloatElement Value="1" />
            </BoundPropertyFloatSet>
            <BoundPropertyStringSet Name="family">
              <BoundPropertyStringElement Value="Arial Black" />
            </BoundPropertyStringSet>
            <BoundPropertyBool Name="horizontal" Value="true" />
            <BoundPropertyStringSet Name="justify">
              <BoundPropertyStringElement Value="MIDDLE" />
            </BoundPropertyStringSet>
            <BoundPropertyFloatSet Name="length" />
            <BoundPropertyFloat Name="maxExtent" Value="0" />
            <BoundPropertyFloatSet Name="position">
              <BoundPropertyFloatElement Value="0.017467021942138672" />
              <BoundPropertyFloatElement Value="1.5872093439102173" />
              <BoundPropertyFloatElement Value="0.02500000037252903" />
            </BoundPropertyFloatSet>
            <BoundPropertyFloat Name="size" Value="0.60000002384185791" />
            <BoundPropertyStringSet Name="string">
              <BoundPropertyStringElement Value="Generic " />
              <BoundPropertyStringElement Value="Refactoring " />
              <BoundPropertyStringElement Value="based on Roles" />
              <BoundPropertyStringElement Value=" " />
            </BoundPropertyStringSet>
            <BoundPropertyString Name="style" Value="Plain" />
            <BoundPropertyFloat Name="transparency" Value="0" />
          </BoundProperties>
        </TextEffect>
      </Effects>
      <Transitions />
      <BoundProperties>
        <BoundPropertyFloatSet Name="diffuseColor">
          <BoundPropertyFloatElement Value="0.75" />
          <BoundPropertyFloatElement Value="1" />
          <BoundPropertyFloatElement Value="0" />
        </BoundPropertyFloatSet>
        <BoundPropertyFloat Name="transparency" Value="1" />
      </BoundProperties>
    </TitleClip>
    <VideoClip extentID="8" gapBefore="0" mediaItemID="4" inTime="0" outTime="0">
      <Effects />
      <Transitions>
        <ShapeEffect effectTemplateID="RollTransitionTemplate" duration="1">
          <BoundProperties />
        </ShapeEffect>
      </Transitions>
      <BoundProperties>
        <BoundPropertyBool Name="Mute" Value="false" />
        <BoundPropertyInt Name="rotateStepNinety" Value="0" />
        <BoundPropertyFloat Name="Volume" Value="1" />
      </BoundProperties>
    </VideoClip>
    <VideoClip extentID="9" gapBefore="0" mediaItemID="5" inTime="0" outTime="0">
      <Effects />
      <Transitions>
        <ShapeEffect effectTemplateID="RollTransitionTemplate" duration="1">
          <BoundProperties />
        </ShapeEffect>
      </Transitions>
      <BoundProperties>
        <BoundPropertyBool Name="Mute" Value="false" />
        <BoundPropertyInt Name="rotateStepNinety" Value="0" />
        <BoundPropertyFloat Name="Volume" Value="1" />
      </BoundProperties>
    </VideoClip>
    <TitleClip extentID="26" gapBefore="119.9906412" duration="1.4210854715202004e-014">
      <Effects>
        <TextEffect effectTemplateID="TextEffectFadeZoomTemplate" TextScriptId="9">
          <BoundProperties>
            <BoundPropertyBool Name="automatic" Value="false" />
            <BoundPropertyFloatSet Name="color">
              <BoundPropertyFloatElement Value="1" />
              <BoundPropertyFloatElement Value="1" />
              <BoundPropertyFloatElement Value="1" />
            </BoundPropertyFloatSet>
            <BoundPropertyStringSet Name="family">
              <BoundPropertyStringElement Value="Arial" />
            </BoundPropertyStringSet>
            <BoundPropertyBool Name="horizontal" Value="true" />
            <BoundPropertyStringSet Name="justify">
              <BoundPropertyStringElement Value="MIDDLE" />
            </BoundPropertyStringSet>
            <BoundPropertyFloatSet Name="length" />
            <BoundPropertyFloat Name="maxExtent" Value="0" />
            <BoundPropertyFloatSet Name="position">
              <BoundPropertyFloatElement Value="0" />
              <BoundPropertyFloatElement Value="2.1802325248718262" />
              <BoundPropertyFloatElement Value="0.02500000037252903" />
            </BoundPropertyFloatSet>
            <BoundPropertyFloat Name="size" Value="0.3333333432674408" />
            <BoundPropertyStringSet Name="string">
              <BoundPropertyStringElement Value="Jan Reimann" />
              <BoundPropertyStringElement Value="" />
              <BoundPropertyStringElement Value="Diploma Thesis: Generisches Modellrefactoring" />
              <BoundPropertyStringElement Value="TU Dresden" />
              <BoundPropertyStringElement Value="" />
              <BoundPropertyStringElement Value="Music: Sever - Zero Human" />
              <BoundPropertyStringElement Value="http://www.jamendo.com/de/album/42180" />
              <BoundPropertyStringElement Value="" />
              <BoundPropertyStringElement Value="© Creative Commons License" />
              <BoundPropertyStringElement Value="http://creativecommons.org/licenses/by-sa/2.0/de/" />
              <BoundPropertyStringElement Value="" />
              <BoundPropertyStringElement Value=" " />
            </BoundPropertyStringSet>
            <BoundPropertyString Name="style" Value="Plain" />
            <BoundPropertyFloat Name="transparency" Value="0" />
          </BoundProperties>
        </TextEffect>
      </Effects>
      <Transitions />
      <BoundProperties>
        <BoundPropertyFloatSet Name="diffuseColor">
          <BoundPropertyFloatElement Value="0.75" />
          <BoundPropertyFloatElement Value="1" />
          <BoundPropertyFloatElement Value="0" />
        </BoundPropertyFloatSet>
        <BoundPropertyFloat Name="transparency" Value="1" />
      </BoundProperties>
    </TitleClip>
    <VideoClip extentID="10" gapBefore="0" mediaItemID="6" inTime="0" outTime="0">
      <Effects />
      <Transitions>
        <ShapeEffect effectTemplateID="RollTransitionTemplate" duration="1">
          <BoundProperties />
        </ShapeEffect>
      </Transitions>
      <BoundProperties>
        <BoundPropertyBool Name="Mute" Value="false" />
        <BoundPropertyInt Name="rotateStepNinety" Value="0" />
        <BoundPropertyFloat Name="Volume" Value="1" />
      </BoundProperties>
    </VideoClip>
    <VideoClip extentID="11" gapBefore="0" mediaItemID="7" inTime="0" outTime="0">
      <Effects />
      <Transitions>
        <ShapeEffect effectTemplateID="RollTransitionTemplate" duration="1">
          <BoundProperties />
        </ShapeEffect>
      </Transitions>
      <BoundProperties>
        <BoundPropertyBool Name="Mute" Value="false" />
        <BoundPropertyInt Name="rotateStepNinety" Value="0" />
        <BoundPropertyFloat Name="Volume" Value="1" />
      </BoundProperties>
    </VideoClip>
    <VideoClip extentID="12" gapBefore="0" mediaItemID="8" inTime="0" outTime="0">
      <Effects />
      <Transitions>
        <ShapeEffect effectTemplateID="RollTransitionTemplate" duration="2">
          <BoundProperties />
        </ShapeEffect>
      </Transitions>
      <BoundProperties>
        <BoundPropertyBool Name="Mute" Value="false" />
        <BoundPropertyInt Name="rotateStepNinety" Value="0" />
        <BoundPropertyFloat Name="Volume" Value="1" />
      </BoundProperties>
    </VideoClip>
    <TitleClip extentID="29" gapBefore="0" duration="10">
      <Effects />
      <Transitions />
      <BoundProperties>
        <BoundPropertyFloatSet Name="diffuseColor">
          <BoundPropertyFloatElement Value="0" />
          <BoundPropertyFloatElement Value="0" />
          <BoundPropertyFloatElement Value="0" />
        </BoundPropertyFloatSet>
        <BoundPropertyFloat Name="transparency" Value="0" />
      </BoundProperties>
    </TitleClip>
    <VideoClip extentID="13" gapBefore="0" mediaItemID="9" inTime="0" outTime="0">
      <Effects />
      <Transitions>
        <ShapeEffect effectTemplateID="RollTransitionTemplate" duration="1">
          <BoundProperties />
        </ShapeEffect>
      </Transitions>
      <BoundProperties>
        <BoundPropertyBool Name="Mute" Value="false" />
        <BoundPropertyInt Name="rotateStepNinety" Value="0" />
        <BoundPropertyFloat Name="Volume" Value="1" />
      </BoundProperties>
    </VideoClip>
    <TitleClip extentID="30" gapBefore="0" duration="10">
      <Effects>
        <TextEffect effectTemplateID="TextEffectFadeTemplate" TextScriptId="1">
          <BoundProperties>
            <BoundPropertyBool Name="automatic" Value="false" />
            <BoundPropertyFloatSet Name="color">
              <BoundPropertyFloatElement Value="1" />
              <BoundPropertyFloatElement Value="1" />
              <BoundPropertyFloatElement Value="1" />
            </BoundPropertyFloatSet>
            <BoundPropertyStringSet Name="family">
              <BoundPropertyStringElement Value="Arial" />
            </BoundPropertyStringSet>
            <BoundPropertyBool Name="horizontal" Value="true" />
            <BoundPropertyStringSet Name="justify">
              <BoundPropertyStringElement Value="MIDDLE" />
            </BoundPropertyStringSet>
            <BoundPropertyFloatSet Name="length" />
            <BoundPropertyFloat Name="maxExtent" Value="0" />
            <BoundPropertyFloatSet Name="position">
              <BoundPropertyFloatElement Value="0" />
              <BoundPropertyFloatElement Value="2.5639533996582031" />
              <BoundPropertyFloatElement Value="0.02500000037252903" />
            </BoundPropertyFloatSet>
            <BoundPropertyFloat Name="size" Value="0.3333333432674408" />
            <BoundPropertyStringSet Name="string">
              <BoundPropertyStringElement Value="Jan Reimann" />
              <BoundPropertyStringElement Value="" />
              <BoundPropertyStringElement Value="Diploma Thesis: Generisches Modellrefactoring" />
              <BoundPropertyStringElement Value="" />
              <BoundPropertyStringElement Value="www.emftext.org/refactoring" />
              <BoundPropertyStringElement Value="" />
              <BoundPropertyStringElement Value="Music: Sever - Zero Human" />
              <BoundPropertyStringElement Value="http://www.jamendo.com/de/album/42180" />
              <BoundPropertyStringElement Value="" />
              <BoundPropertyStringElement Value="© Creative Commons License" />
              <BoundPropertyStringElement Value="http://creativecommons.org/licenses/by-sa/2.0/de/" />
              <BoundPropertyStringElement Value=" " />
            </BoundPropertyStringSet>
            <BoundPropertyString Name="style" Value="Plain" />
            <BoundPropertyFloat Name="transparency" Value="0" />
          </BoundProperties>
        </TextEffect>
      </Effects>
      <Transitions />
      <BoundProperties>
        <BoundPropertyFloatSet Name="diffuseColor">
          <BoundPropertyFloatElement Value="0.75" />
          <BoundPropertyFloatElement Value="1" />
          <BoundPropertyFloatElement Value="0" />
        </BoundPropertyFloatSet>
        <BoundPropertyFloat Name="transparency" Value="1" />
      </BoundProperties>
    </TitleClip>
    <VideoClip extentID="14" gapBefore="0" mediaItemID="10" inTime="0" outTime="0">
      <Effects />
      <Transitions>
        <ShapeEffect effectTemplateID="RollTransitionTemplate" duration="1">
          <BoundProperties />
        </ShapeEffect>
      </Transitions>
      <BoundProperties>
        <BoundPropertyBool Name="Mute" Value="false" />
        <BoundPropertyInt Name="rotateStepNinety" Value="0" />
        <BoundPropertyFloat Name="Volume" Value="1" />
      </BoundProperties>
    </VideoClip>
    <VideoClip extentID="15" gapBefore="0" mediaItemID="11" inTime="0" outTime="0">
      <Effects />
      <Transitions>
        <ShapeEffect effectTemplateID="RollTransitionTemplate" duration="1">
          <BoundProperties />
        </ShapeEffect>
      </Transitions>
      <BoundProperties>
        <BoundPropertyBool Name="Mute" Value="false" />
        <BoundPropertyInt Name="rotateStepNinety" Value="0" />
        <BoundPropertyFloat Name="Volume" Value="1" />
      </BoundProperties>
    </VideoClip>
    <VideoClip extentID="16" gapBefore="0" mediaItemID="12" inTime="0" outTime="0">
      <Effects />
      <Transitions>
        <ShapeEffect effectTemplateID="RollTransitionTemplate" duration="1">
          <BoundProperties />
        </ShapeEffect>
      </Transitions>
      <BoundProperties>
        <BoundPropertyBool Name="Mute" Value="false" />
        <BoundPropertyInt Name="rotateStepNinety" Value="0" />
        <BoundPropertyFloat Name="Volume" Value="1" />
      </BoundProperties>
    </VideoClip>
    <ExtentSelector extentID="1" gapBefore="0" primaryTrack="true">
      <Effects />
      <Transitions />
      <BoundProperties />
      <ExtentRefs>
        <ExtentRef id="20" />
        <ExtentRef id="23" />
        <ExtentRef id="18" />
        <ExtentRef id="5" />
        <ExtentRef id="6" />
        <ExtentRef id="7" />
        <ExtentRef id="8" />
        <ExtentRef id="9" />
        <ExtentRef id="10" />
        <ExtentRef id="11" />
        <ExtentRef id="12" />
        <ExtentRef id="13" />
        <ExtentRef id="14" />
        <ExtentRef id="15" />
        <ExtentRef id="16" />
        <ExtentRef id="17" />
        <ExtentRef id="29" />
      </ExtentRefs>
    </ExtentSelector>
    <ExtentSelector extentID="2" gapBefore="0" primaryTrack="false">
      <Effects />
      <Transitions />
      <BoundProperties />
      <ExtentRefs>
        <ExtentRef id="19" />
      </ExtentRefs>
    </ExtentSelector>
    <ExtentSelector extentID="3" gapBefore="0" primaryTrack="false">
      <Effects />
      <Transitions />
      <BoundProperties />
      <ExtentRefs />
    </ExtentSelector>
    <ExtentSelector extentID="4" gapBefore="0" primaryTrack="false">
      <Effects />
      <Transitions />
      <BoundProperties />
      <ExtentRefs>
        <ExtentRef id="21" />
        <ExtentRef id="24" />
        <ExtentRef id="26" />
        <ExtentRef id="30" />
      </ExtentRefs>
    </ExtentSelector>
  </Extents>
  <BoundPlaceholders>
    <BoundPlaceholder placeholderID="SingleExtentView" extentID="0" />
    <BoundPlaceholder placeholderID="Main" extentID="1" />
    <BoundPlaceholder placeholderID="SoundTrack" extentID="2" />
    <BoundPlaceholder placeholderID="Text" extentID="4" />
    <BoundPlaceholder placeholderID="Narration" extentID="3" />
  </BoundPlaceholders>
  <BoundProperties>
    <BoundPropertyFloatSet Name="AspectRatio">
      <BoundPropertyFloatElement Value="1.3333332538604736" />
    </BoundPropertyFloatSet>
    <BoundPropertyFloat Name="SoundTrackMix" Value="0.5" />
  </BoundProperties>
</Project>